HIERARCHY
ROOT hip
{
  OFFSET 0 0 0
  CHANNELS 6 Xposition Yposition Zposition Zrotation Yrotation Xrotation
  JOINT abdomen
  {
    OFFSET 0 20.6881 -0.73152
    CHANNELS 3 Zrotation Xrotation Yrotation
    JOINT chest
    {
      OFFSET 0 11.7043 -0.48768
      CHANNELS 3 Zrotation Xrotation Yrotation
      JOINT neck
      {
        OFFSET 0 22.1894 -2.19456
        CHANNELS 3 Zrotation Xrotation Yrotation
        JOINT head
        {
          OFFSET -0.24384 7.07133 1.2192
          CHANNELS 3 Zrotation Xrotation Yrotation
          JOINT leftEye
          {
            OFFSET 4.14528 8.04674 8.04672
            CHANNELS 3 Zrotation Xrotation Yrotation
            End Site
            {
              OFFSET 1 0 0
            }
          }
          JOINT rightEye
          {
            OFFSET -3.6576 8.04674 8.04672
            CHANNELS 3 Zrotation Xrotation Yrotation
            End Site
            {
              OFFSET 1 0 0
            }
          }
        }
      }
      JOINT rCollar
      {
        OFFSET -2.68224 19.2634 -4.8768
        CHANNELS 3 Zrotation Xrotation Yrotation
        JOINT rShldr
        {
          OFFSET -8.77824 -1.95073 1.46304
          CHANNELS 3 Zrotation Xrotation Yrotation
          JOINT rForeArm
          {
            OFFSET -28.1742 -1.7115 0.48768
            CHANNELS 3 Zrotation Xrotation Yrotation
            JOINT rHand
            {
              OFFSET -22.5879 0.773209 7.07136
              CHANNELS 3 Zrotation Xrotation Yrotation
              JOINT rThumb1
              {
                OFFSET -1.2192 -0.487915 3.41376
                CHANNELS 3 Zrotation Xrotation Yrotation
                JOINT rThumb2
                {
                  OFFSET -3.37035 -0.52449 3.41376
                  CHANNELS 3 Zrotation Xrotation Yrotation
                  End Site
                  {
                    OFFSET -1.78271 -1.18214 1.43049
                  }
                }
              }
              JOINT rIndex1
              {
                OFFSET -7.75947 0.938293 5.60832
                CHANNELS 3 Zrotation Xrotation Yrotation
                JOINT rIndex2
                {
                  OFFSET -2.54057 -0.884171 1.56538
                  CHANNELS 3 Zrotation Xrotation Yrotation
                  End Site
                  {
                    OFFSET -1.62519 -0.234802 1.16502
                  }
                }
              }
              JOINT rMid1
              {
                OFFSET -8.24714 1.18213 3.41376
                CHANNELS 3 Zrotation Xrotation Yrotation
                JOINT rMid2
                {
                  OFFSET -3.10165 -0.590103 1.0647
                  CHANNELS 3 Zrotation Xrotation Yrotation
                  End Site
                  {
                    OFFSET -2.48547 -0.328903 0.83742
                  }
                }
              }
              JOINT rRing1
              {
                OFFSET -8.82822 0.546677 1.51678
                CHANNELS 3 Zrotation Xrotation Yrotation
                JOINT rRing2
                {
                  OFFSET -2.60934 -0.819778 -0.0198488
                  CHANNELS 3 Zrotation Xrotation Yrotation
                  End Site
                  {
                    OFFSET -2.33842 -0.294052 0.168128
                  }
                }
              }
              JOINT rPinky1
              {
                OFFSET -8.27202 -0.0477905 -0.4584
                CHANNELS 3 Zrotation Xrotation Yrotation
                JOINT rPinky2
                {
                  OFFSET -1.82734 -0.647385 -0.700984
                  CHANNELS 3 Zrotation Xrotation Yrotation
                  End Site
                  {
                    OFFSET -1.69225 -0.51767 -0.607171
                  }
                }
              }
            }
          }
        }
      }
      JOINT lCollar
      {
        OFFSET 2.68224 19.2634 -4.8768
        CHANNELS 3 Zrotation Xrotation Yrotation
        JOINT lShldr
        {
          OFFSET 8.77824 -1.95073 1.46304
          CHANNELS 3 Zrotation Xrotation Yrotation
          JOINT lForeArm
          {
            OFFSET 28.1742 -1.7115 0.48768
            CHANNELS 3 Zrotation Xrotation Yrotation
            JOINT lHand
            {
              OFFSET 22.5879 0.773209 7.07136
              CHANNELS 3 Zrotation Xrotation Yrotation
              JOINT lThumb1
              {
                OFFSET 1.2192 -0.487915 3.41376
                CHANNELS 3 Zrotation Xrotation Yrotation
                JOINT lThumb2
                {
                  OFFSET 3.37035 -0.52449 3.41376
                  CHANNELS 3 Zrotation Xrotation Yrotation
                  End Site
                  {
                    OFFSET 1.78271 -1.18214 1.43049
                  }
                }
              }
              JOINT lIndex1
              {
                OFFSET 7.75947 0.938293 5.60832
                CHANNELS 3 Zrotation Xrotation Yrotation
                JOINT lIndex2
                {
                  OFFSET 2.54057 -0.884171 1.56538
                  CHANNELS 3 Zrotation Xrotation Yrotation
                  End Site
                  {
                    OFFSET 1.62519 -0.234802 1.16502
                  }
                }
              }
              JOINT lMid1
              {
                OFFSET 8.24714 1.18213 3.41376
                CHANNELS 3 Zrotation Xrotation Yrotation
                JOINT lMid2
                {
                  OFFSET 3.10165 -0.590103 1.0647
                  CHANNELS 3 Zrotation Xrotation Yrotation
                  End Site
                  {
                    OFFSET 2.48547 -0.328903 0.83742
                  }
                }
              }
              JOINT lRing1
              {
                OFFSET 8.82822 0.546677 1.51678
                CHANNELS 3 Zrotation Xrotation Yrotation
                JOINT lRing2
                {
                  OFFSET 2.60934 -0.819778 -0.0198488
                  CHANNELS 3 Zrotation Xrotation Yrotation
                  End Site
                  {
                    OFFSET 2.33842 -0.294052 0.168128
                  }
                }
              }
              JOINT lPinky1
              {
                OFFSET 8.27202 -0.0477905 -0.4584
                CHANNELS 3 Zrotation Xrotation Yrotation
                JOINT lPinky2
                {
                  OFFSET 1.82734 -0.647385 -0.700984
                  CHANNELS 3 Zrotation Xrotation Yrotation
                  End Site
                  {
                    OFFSET 1.69225 -0.51767 -0.607171
                  }
                }
              }
            }
          }
        }
      }
    }
  }
  JOINT rButtock
  {
    OFFSET -8.77824 4.35084 1.2192
    CHANNELS 3 Zrotation Xrotation Yrotation
    JOINT rThigh
    {
      OFFSET 0 -1.70687 -2.19456
      CHANNELS 3 Zrotation Xrotation Yrotation
      JOINT rShin
      {
        OFFSET 0 -36.8199 0.73152
        CHANNELS 3 Zrotation Xrotation Yrotation
        JOINT rFoot
        {
          OFFSET 0.73152 -45.1104 -5.12064
          CHANNELS 3 Zrotation Xrotation Yrotation
          End Site
          {
            OFFSET -1.1221 -3.69964 12.103
          }
        }
      }
    }
  }
  JOINT lButtock
  {
    OFFSET 8.77824 4.35084 1.2192
    CHANNELS 3 Zrotation Xrotation Yrotation
    JOINT lThigh
    {
      OFFSET 0 -1.70687 -2.19456
      CHANNELS 3 Zrotation Xrotation Yrotation
      JOINT lShin
      {
        OFFSET 0 -36.8199 0.73152
        CHANNELS 3 Zrotation Xrotation Yrotation
        JOINT lFoot
        {
          OFFSET -0.73152 -45.1104 -5.12064
          CHANNELS 3 Zrotation Xrotation Yrotation
          End Site
          {
            OFFSET 1.1221 -3.69964 12.103
          }
        }
      }
    }
  }
}
MOTION
Frames:	5
Frame Time:	0.00833333
265.772 83.9187 -2.68373 536.358 1.5783 534.6 -13.8539 11.4735 4.54151 1.29679 -1.29393 1.24671 14.5269 2.52634 13.6436 -27.0688 12.9892 25.0634 -0.0 0.0 0.0 -0.0 0.0 0.0 -7.96403e-14 2.30615e-13 8.54145e-14 90.9043 22.2608 -17.2093 -13.9566 -6.92004 25.4656 -0.00907846 2.64374 0.371853 1.47945e-09 6.6781e-11 5.24436e-10 2.55772e-09 1.14926e-10 9.02995e-10 1.47945e-09 6.67824e-11 5.24433e-10 7.73091 5.47488 0.417314 1.47945e-09 6.67818e-11 5.24438e-10 2.90554 0.965183 0.102902 1.47945e-09 6.67803e-11 5.24441e-10 10.2786 0.731801 0.0259123 1.47945e-09 6.67788e-11 5.24457e-10 2.22167 -0.733487 -0.20892 -7.97504e-14 2.3064e-13 8.52817e-14 -54.9493 47.7568 -18.2516 22.0696 -15.8637 -43.9719 0.0896691 -8.51862 1.20618 6.3062e-10 8.90284e-11 -6.46856e-10 1.09529e-09 1.74297e-10 -1.11374e-09 6.30619e-10 8.90252e-11 -6.46848e-10 -7.73091 5.47488 -0.417314 6.30615e-10 8.90205e-11 -6.46853e-10 -2.90554 0.965183 -0.102902 6.30618e-10 8.90252e-11 -6.46854e-10 -10.2786 0.731801 -0.0259123 6.3063e-10 8.90288e-11 -6.46865e-10 -2.22167 -0.733487 0.20892 -2.03217e-16 0.0 -3.88251e-19 -14.5535 -18.9162 0.0757223 -1.10562 60.5481 1.54224 -1.63921 -5.03658 -6.39122 2.03217e-16 0.0 3.88251e-19 -18.1905 4.26059 -2.97254 0.0196574 11.0666 -0.146607 1.97189 -10.6453 6.14529
265.595 84.0849 -3.61243 535.939 0.5635 534.518 -14.1324 11.5728 4.42294 1.41868 -1.3498 1.17484 14.3393 2.43515 14.3258 -26.3405 13.4029 24.0855 -0.0 0.0 0.0 -0.0 0.0 0.0 -8.03607e-14 2.08313e-13 6.72389e-14 91.3591 20.9285 -18.0039 -13.7158 -6.72741 24.984 -0.0105625 2.93305 0.412577 1.27344e-09 1.53026e-10 4.71702e-10 2.20153e-09 2.64145e-10 8.12356e-10 1.27345e-09 1.53026e-10 4.71699e-10 7.73091 5.47488 0.417314 1.27344e-09 1.53025e-10 4.71705e-10 2.90554 0.965183 0.102902 1.27345e-09 1.53023e-10 4.71706e-10 10.2786 0.731801 0.0259123 1.27344e-09 1.53022e-10 4.71724e-10 2.22167 -0.733487 -0.20892 -8.04615e-14 2.0834e-13 6.70898e-14 -52.9076 48.2861 -20.2629 22.2032 -16.0656 -44.3425 0.0929549 -8.66379 1.22708 5.42867e-10 -2.00267e-10 -6.11859e-10 9.43217e-10 -3.27355e-10 -1.05396e-09 5.42863e-10 -2.00272e-10 -6.11853e-10 -7.73091 5.47488 -0.417314 5.4286e-10 -2.00278e-10 -6.11859e-10 -2.90554 0.965183 -0.102902 5.42866e-10 -2.00272e-10 -6.11858e-10 -10.2786 0.731801 -0.0259123 5.42878e-10 -2.00267e-10 -6.11869e-10 -2.22167 -0.733487 0.20892 -2.03217e-16 0.0 -3.88251e-19 -14.5977 -19.7068 0.202613 -1.00604 58.999 1.44411 -1.77848 -5.58345 -6.84394 2.03217e-16 0.0 3.88251e-19 -18.2863 5.30391 -2.98566 0.0164169 10.4573 -0.154777 1.77914 -10.7139 5.32006
265.435 84.0753 -4.41685 535.793 -0.6522 534.846 -14.3023 11.6194 3.97032 1.74574 -1.3505 0.91469 14.0867 2.42033 14.569 -26.005 13.3913 23.7914 -0.0 0.0 0.0 -0.0 0.0 0.0 -6.8789e-14 1.61042e-13 1.17269e-13 91.4922 20.0638 -18.7104 -13.4906 -6.55008 24.536 -0.0136108 3.39159 0.477194 9.01748e-10 5.93565e-10 5.55908e-10 1.55939e-09 1.02704e-09 9.59421e-10 9.01756e-10 5.93564e-10 5.55904e-10 7.73091 5.47488 0.417314 9.01748e-10 5.93563e-10 5.55912e-10 2.90554 0.965183 0.102902 9.01754e-10 5.93562e-10 5.55912e-10 10.2786 0.731801 0.0259123 9.01748e-10 5.93561e-10 5.5593e-10 2.22167 -0.733487 -0.20892 -6.89105e-14 1.61063e-13 1.17077e-13 -51.6349 48.2035 -21.8671 22.2944 -16.2045 -44.5982 0.090563 -8.5557 1.21152 3.53085e-10 -1.17063e-09 -7.64054e-10 6.16641e-10 -2.00667e-09 -1.31959e-09 3.53082e-10 -1.17063e-09 -7.6405e-10 -7.73091 5.47488 -0.417314 3.5308e-10 -1.17064e-09 -7.64055e-10 -2.90554 0.965183 -0.102902 3.53085e-10 -1.17063e-09 -7.64055e-10 -10.2786 0.731801 -0.0259123 3.53096e-10 -1.17063e-09 -7.64065e-10 -2.22167 -0.733487 0.20892 -2.03217e-16 0.0 -3.88251e-19 -14.7756 -20.5085 0.0110865 -0.908833 57.2804 1.34581 -1.89825 -6.01132 -7.23984 2.03217e-16 0.0 3.88251e-19 -18.2718 6.17906 -3.04591 0.0138443 9.9413 -0.160671 1.50293 -10.6671 4.17883
265.305 84.1177 -5.29058 535.743 -1.7509 534.993 -14.4067 11.6405 3.30869 2.20802 -1.3171 0.52985 13.8133 2.4477 14.5586 -25.9441 13.1166 23.9083 -0.0 0.0 0.0 -0.0 0.0 0.0 -4.78261e-14 9.15351e-14 2.0194e-13 91.4135 19.5004 -19.3502 -13.2812 -6.38869 24.119 -0.0190195 3.98325 0.560712 3.99768e-10 1.25436e-09 7.14243e-10 6.92325e-10 2.17148e-09 1.23532e-09 3.99776e-10 1.25436e-09 7.14237e-10 7.73091 5.47488 0.417314 3.99768e-10 1.25436e-09 7.14247e-10 2.90554 0.965183 0.102902 3.99775e-10 1.25436e-09 7.14245e-10 10.2786 0.731801 0.0259123 3.99767e-10 1.25436e-09 7.14263e-10 2.22167 -0.733487 -0.20892 -4.79851e-14 9.15449e-14 2.01686e-13 -50.9122 47.7286 -23.1715 22.3554 -16.2994 -44.7662 0.0848609 -8.28872 1.17316 9.89918e-11 -2.58048e-09 -1.02268e-09 1.79979e-10 -4.44626e-09 -1.77043e-09 9.89893e-11 -2.58049e-09 -1.02268e-09 -7.73091 5.47488 -0.417314 9.8989e-11 -2.58049e-09 -1.02268e-09 -2.90554 0.965183 -0.102902 9.89902e-11 -2.58049e-09 -1.02269e-09 -10.2786 0.731801 -0.0259123 9.90006e-11 -2.58048e-09 -1.0227e-09 -2.22167 -0.733487 0.20892 -2.03217e-16 0.0 -3.88251e-19 -15.0619 -21.2816 -0.399701 -0.814613 55.3838 1.24853 -2.00138 -6.34061 -7.59613 2.03217e-16 0.0 3.88251e-19 -18.1768 6.94541 -3.11008 0.0118754 9.48813 -0.165099 1.17436 -10.5429 2.81128
265.172 84.1836 -6.13618 535.673 -2.9459 535.128 -14.49 11.6494 2.56509 2.73347 -1.25724 0.121962 13.5299 2.47899 14.4453 -25.9694 12.7333 24.186 -0.0 0.0 0.0 -0.0 0.0 0.0 -2.33144e-14 2.17794e-14 2.73852e-13 91.2419 19.1136 -19.9456 -13.0906 -6.24394 23.7408 -0.0264009 4.64305 0.654 -1.07882e-10 1.82307e-09 8.3777e-10 -1.84641e-10 3.15653e-09 1.45115e-09 -1.07874e-10 1.82307e-09 8.37762e-10 7.73091 5.47488 0.417314 -1.07883e-10 1.82307e-09 8.37773e-10 2.90554 0.965183 0.102902 -1.07875e-10 1.82307e-09 8.37771e-10 10.2786 0.731801 0.0259123 -1.07885e-10 1.82307e-09 8.37788e-10 2.22167 -0.733487 -0.20892 -2.35048e-14 2.17782e-14 2.73538e-13 -50.4797 47.0687 -24.3114 22.3941 -16.3603 -44.8699 0.07827 -7.96114 1.12618 -1.57253e-10 -3.80674e-09 -1.2182e-09 -2.6093e-10 -6.56942e-09 -2.11191e-09 -1.57255e-10 -3.80674e-09 -1.2182e-09 -7.73091 5.47488 -0.417314 -1.57253e-10 -3.80674e-09 -1.2182e-09 -2.90554 0.965183 -0.102902 -1.57256e-10 -3.80674e-09 -1.2182e-09 -10.2786 0.731801 -0.0259123 -1.57246e-10 -3.80674e-09 -1.21821e-09 -2.22167 -0.733487 0.20892 -2.03217e-16 0.0 -3.88251e-19 -15.387 -21.9856 -0.872268 -0.723247 53.3158 1.15043 -2.0861 -6.59934 -7.89906 2.03217e-16 0.0 3.88251e-19 -18.0622 7.67502 -3.23673 0.0103185 9.05401 -0.166515 0.857141 -10.4204 1.46482
